#!OML:ASF F:\VICON\USERDATA\INSTALL\rory3\rory3.ASF
:FULLY-SPECIFIED
:DEGREES
48
root -0.360519 18.9025 -13.4397 3.77896 -4.69596 1.56185
lowerback 6.438 1.08811 -3.14165
upperback 0.199937 1.16408 -1.45737
thorax -3.43728 0.616948 0.149975
lowerneck -10.4513 -3.66273 -8.53971
upperneck 12.8814 -4.76887 8.11628
head 6.01328 -2.14443 3.57986
rclavicle 4.77083e-015 1.94809e-014
rhumerus -34.3358 2.31607 -83.635
rradius 30.9412
rwrist 15.7464
rhand -22.0899 0.0119557
rfingers 7.12502
rthumb 4.32193 -29.9239
lclavicle 4.77083e-015 1.94809e-014
lhumerus -35.3225 15.2755 75.4426
lradius 25.8935
lwrist -4.58607
lhand -18.1227 26.0938
lfingers 7.12502
lthumb 8.15193 55.9166
rfemur -7.5222 20.3736 18.1631
rtibia 19.513
rfoot -14.5772 -17.3717
rtoes -1.52879
lfemur -6.19267 -6.31675 -20.1758
ltibia 16.1372
lfoot -11.5279 12.5995
ltoes -6.67752
49
root -0.35996 18.8946 -13.4531 3.80283 -4.6788 1.55428
lowerback 6.60056 1.09634 -3.11539
upperback 0.285633 1.17244 -1.44754
thorax -3.4396 0.620008 0.142633
lowerneck -10.4244 -3.65935 -8.50806
upperneck 12.6612 -4.74574 8.02726
head 5.93478 -2.13904 3.5469
rclavicle 8.00108e-015 -7.15625e-015
rhumerus -34.2486 2.55977 -83.6795
rradius 31.0529
rwrist 15.4177
rhand -21.902 -0.273735
rfingers 7.12502
rthumb 4.50338 -30.2059
lclavicle 8.00108e-015 -7.15625e-015
lhumerus -35.1602 15.1065 75.6222
lradius 26.0293
lwrist -4.36222
lhand -18.026 26.1251
lfingers 7.12502
lthumb 8.24527 55.9442
rfemur -7.7765 20.3167 18.1447
rtibia 19.848
rfoot -14.6901 -17.326
rtoes -1.45532
lfemur -6.58311 -6.2028 -20.1583
ltibia 16.7287
lfoot -11.677 12.4899
ltoes -7.05657
50
root -0.359142 18.8884 -13.4694 3.86923 -4.64445 1.43485
lowerback 6.7954 1.07686 -3.01043
upperback 0.382738 1.15036 -1.39918
thorax -3.44651 0.60699 0.133517
lowerneck -10.5462 -3.61172 -8.369
upperneck 12.4659 -4.66339 7.8912
head 5.8809 -2.09978 3.48503
rclavicle 1.31695e-014 -8.34896e-015
rhumerus -34.0939 2.70986 -83.6845
rradius 31.0947
rwrist 15.4193
rhand -21.9403 -0.19177
rfingers 7.12502
rthumb 4.46639 -30.1247
lclavicle 1.31695e-014 -8.34896e-015
lhumerus -34.9419 15.0973 75.7443
lradius 26.1101
lwrist -4.32574
lhand -17.9475 25.9696
lfingers 7.12502
lthumb 8.32096 55.7857
rfemur -8.09482 20.2752 18.2304
rtibia 20.1964
rfoot -14.8216 -17.2644
rtoes -1.34907
lfemur -7.02938 -6.20895 -20.0123
ltibia 17.3341
lfoot -11.8226 12.4832
ltoes -7.48683
51
root -0.357324 18.8818 -13.4851 3.90771 -4.65596 1.43174
lowerback 7.05447 1.08076 -2.98859
upperback 0.454164 1.14704 -1.42297
thorax -3.5167 0.60483 0.092976
lowerneck -10.7013 -3.55951 -8.25445
upperneck 12.3401 -4.58764 7.85636
head 5.85814 -2.05693 3.45936
rclavicle 2.93207e-015 5.1684e-015
rhumerus -34.052 2.71046 -83.7277
rradius 31.191
rwrist 15.6188
rhand -22.0139 -0.286456
rfingers 7.12502
rthumb 4.39532 -30.2208
lclavicle 2.93207e-015 5.1684e-015
lhumerus -34.7826 14.9278 75.8425
lradius 26.243
lwrist -4.19574
lhand -17.9676 26.0929
lfingers 7.12502
lthumb 8.30162 55.9098
rfemur -8.38114 20.2586 18.1951
rtibia 20.5261
rfoot -14.8776 -17.2492
rtoes -1.47058
lfemur -7.46794 -6.20452 -20.0045
ltibia 17.9544
lfoot -11.9424 12.4919
ltoes -7.60689
52
root -0.35558 18.8757 -13.5014 3.93179 -4.64322 1.4289
lowerback 7.31088 1.09628 -2.95934
upperback 0.514778 1.16073 -1.41899
thorax -3.59734 0.61138 0.0750908
lowerneck -10.7374 -3.54383 -8.35883
upperneck 12.2057 -4.55261 7.95005
head 5.82388 -2.03755 3.50876
rclavicle 2.73329e-015 -1.19271e-015
rhumerus -33.9889 2.69782 -83.7037
rradius 31.2116
rwrist 15.7441
rhand -22.2299 -0.307064
rfingers 7.12502
rthumb 4.18675 -30.2457
lclavicle 2.73329e-015 -1.19271e-015
lhumerus -34.7105 14.6644 76.0373
lradius 26.479
lwrist -3.9727
lhand -17.8705 26.3923
lfingers 7.12502
lthumb 8.39534 56.2055
rfemur -8.65323 20.2475 18.1653
rtibia 20.8691
rfoot -14.9885 -17.24
rtoes -1.7071
lfemur -7.90109 -6.14057 -19.9894
ltibia 18.5829
lfoot -12.0873 12.3997
ltoes -7.50389
53
root -0.354798 18.8698 -13.5218 4.02288 -4.58039 1.28458
lowerback 7.50212 1.08645 -2.79905
upperback 0.606615 1.15754 -1.36261
thorax -3.60698 0.607068 0.0414554
lowerneck -10.711 -3.54156 -8.38364
upperneck 11.9232 -4.5261 7.90865
head 5.7285 -2.02973 3.50059
rclavicle 1.93815e-015 2.18663e-014
rhumerus -33.7974 2.78772 -83.6758
rradius 31.2425
rwrist 15.7334
rhand -22.3634 -0.371329
rfingers 7.12502
rthumb 4.05788 -30.3124
lclavicle 1.93815e-015 2.18663e-014
lhumerus -34.6056 14.4201 76.2659
lradius 26.7604
lwrist -3.77295
lhand -17.7937 26.3469
lfingers 7.12502
lthumb 8.46945 56.1571
rfemur -9.02299 20.2478 18.272
rtibia 21.2536
rfoot -15.1247 -17.2457
rtoes -1.62502
lfemur -8.40784 -6.04386 -19.794
ltibia 19.1957
lfoot -12.2336 12.2108
ltoes -7.22369
54
root -0.353474 18.8603 -13.5439 4.10309 -4.48383 1.21316
lowerback 7.76404 1.07258 -2.67697
upperback 0.664627 1.14006 -1.37217
thorax -3.69038 0.596644 -0.0392834
lowerneck -10.677 -3.52433 -8.28009
upperneck 11.6747 -4.5025 7.86283
head 5.63978 -2.01793 3.46999
rclavicle 6.16232e-015 -5.1684e-015
rhumerus -33.7305 2.92887 -83.7423
rradius 31.3649
rwrist 15.543
rhand -22.4406 -0.47973
rfingers 7.12502
rthumb 3.98326 -30.4222
lclavicle 6.16232e-015 -5.1684e-015
lhumerus -34.5113 14.1339 76.4142
lradius 27.0084
lwrist -3.6759
lhand -17.7969 26.3581
lfingers 7.12502
lthumb 8.46633 56.1684
rfemur -9.37878 20.2259 18.2992
rtibia 21.6258
rfoot -15.2391 -17.2837
rtoes -1.64015
lfemur -8.91321 -6.02149 -19.6869
ltibia 19.8047
lfoot -12.383 12.0365
ltoes -6.94129
55
root -0.352627 18.85 -13.5651 4.1639 -4.43696 1.22671
lowerback 8.07709 1.08803 -2.64705
upperback 0.702217 1.1504 -1.4061
thorax -3.82545 0.601723 -0.0980228
lowerneck -10.625 -3.51446 -8.31731
upperneck 11.4557 -4.49197 7.98224
head 5.5654 -2.0078 3.51478
rclavicle -1.10822e-014 8.34896e-015
rhumerus -33.7616 2.88534 -83.7428
rradius 31.5045
rwrist 15.5163
rhand -22.678 -0.517096
rfingers 7.12502
rthumb 3.75408 -30.4638
lclavicle -1.10822e-014 8.34896e-015
lhumerus -34.4237 13.6693 76.6126
lradius 27.2823
lwrist -3.41376
lhand -17.8052 26.71
lfingers 7.12502
lthumb 8.45834 56.5206
rfemur -9.73941 20.2102 18.2301
rtibia 21.9938
rfoot -15.301 -17.2844
rtoes -1.71124
lfemur -9.3861 -5.99762 -19.6716
ltibia 20.3801
lfoot -12.5189 11.9238
ltoes -7.1426
56
root -0.351179 18.8417 -13.5817 4.19524 -4.44567 1.15605
lowerback 8.38505 1.1065 -2.56031
upperback 0.757703 1.17302 -1.38721
thorax -3.93909 0.612011 -0.135127
lowerneck -10.5071 -3.47141 -8.37372
upperneck 11.1491 -4.42818 8.06539
head 5.44772 -1.97675 3.55594
rclavicle -1.46107e-014 -2.38542e-015
rhumerus -33.7535 2.89931 -83.7179
rradius 31.6152
rwrist 15.4247
rhand -22.9594 -0.58989
rfingers 7.12502
rthumb 3.48234 -30.5412
lclavicle -1.46107e-014 -2.38542e-015
lhumerus -34.4189 13.2541 76.8586
lradius 27.6662
lwrist -3.11109
lhand -17.8643 27.239
lfingers 7.12502
lthumb 8.40133 57.0519
rfemur -10.0617 20.2336 18.2653
rtibia 22.3946
rfoot -15.3942 -17.2644
rtoes -1.65551
lfemur -9.79229 -5.91233 -19.5773
ltibia 20.9534
lfoot -12.6834 11.8063
ltoes -6.90553
57
root -0.346705 18.8347 -13.5948 4.26225 -4.40127 1.20992
lowerback 8.58222 1.09618 -2.58154
upperback 0.850457 1.15137 -1.40075
thorax -3.95265 0.600931 -0.137333
lowerneck -10.5199 -3.43117 -8.36365
upperneck 10.8667 -4.36128 8.08242
head 5.35673 -1.94288 3.56395
rclavicle -4.02539e-015 -8.74653e-015
rhumerus -33.6326 2.93142 -83.6943
rradius 31.6426
rwrist 15.2871
rhand -23.2914 -0.517615
rfingers 7.12502
rthumb 3.16171 -30.4739
lclavicle -4.02539e-015 -8.74653e-015
lhumerus -34.4305 12.7777 77.1234
lradius 28.1619
lwrist -2.68472
lhand -17.8472 27.3304
lfingers 7.12502
lthumb 8.41782 57.1427
rfemur -10.4198 20.145 18.1447
rtibia 22.8521
rfoot -15.6075 -17.1903
rtoes -1.53606
lfemur -10.2309 -5.82489 -19.6359
ltibia 21.531
lfoot -12.8602 11.6569
ltoes -6.88782
58
root -0.345103 18.8228 -13.6255 4.427 -4.15263 1.24456
lowerback 8.91107 1.03788 -2.59649
upperback 0.91178 1.06151 -1.3942
thorax -4.07141 0.557111 -0.116777
lowerneck -10.643 -3.41884 -8.3312
upperneck 10.6116 -4.32389 8.0606
head 5.29422 -1.92256 3.55238
rclavicle -8.79622e-015 1.31198e-014
rhumerus -33.4733 3.01364 -83.6576
rradius 31.7233
rwrist 15.0484
rhand -23.4736 -0.523327
rfingers 7.12502
rthumb 2.98578 -30.4822
lclavicle -8.79622e-015 1.31198e-014
lhumerus -34.3072 12.2694 77.3936
lradius 28.5432
lwrist -2.31622
lhand -17.8304 27.0605
lfingers 7.12502
lthumb 8.43397 56.8721
rfemur -10.9061 19.8752 18.0323
rtibia 23.3029
rfoot -15.8038 -17.1352
rtoes -1.38963
lfemur -10.8732 -5.78012 -19.6186
ltibia 22.0965
lfoot -12.921 11.3715
ltoes -7.07145
59
root -0.347808 18.8092 -13.6696 4.64164 -3.86644 1.30277
lowerback 9.3977 0.958053 -2.69982
upperback 0.877822 0.926272 -1.36559
thorax -4.37842 0.494713 -0.0210559
lowerneck -10.6746 -3.40027 -8.35826
upperneck 10.3802 -4.28075 8.06892
head 5.22509 -1.90182 3.56178
rclavicle 3.18055e-015 1.47101e-014
rhumerus -33.4248 3.06329 -83.5804
rradius 31.8202
rwrist 14.9699
rhand -23.6296 -0.059436
rfingers 7.12502
rthumb 2.83506 -30.0203
lclavicle 3.18055e-015 1.47101e-014
lhumerus -34.2045 11.9129 77.6053
lradius 28.7693
lwrist -2.08712
lhand -17.8173 26.7923
lfingers 7.12502
lthumb 8.44663 56.6034
rfemur -11.5415 19.5724 17.8826
rtibia 23.795
rfoot -15.8674 -17.1154
rtoes -1.38707
lfemur -11.5982 -5.73689 -19.5999
ltibia 22.6149
lfoot -12.8665 11.0786
ltoes -7.07679
